<svg width="78" height="77" viewBox="0 0 78 77" fill="none" xmlns="http://www.w3.org/2000/svg">
<path d="M78.0067 34.5082L77.2298 34.3096C76.4178 34.1052 75.8746 27.5166 75.0042 27.1369C74.1338 26.7573 74.0287 23.5506 73.427 23.5506C72.8254 23.5506 72.6151 24.3099 71.9083 26.436C71.2015 28.5621 71.9083 29.0937 71.9083 30.0749C71.9083 31.0562 71.7447 32.8961 71.1489 32.2419C70.5531 31.5877 67.942 24.0938 66.9081 23.9361C65.8741 23.7784 64.957 21.5997 64.1977 21.2727C63.4383 20.9456 62.9418 21.4362 61.5866 21.4362C60.2314 21.4362 60.1204 20.344 59.5187 20.4024C58.9171 20.4608 58.1635 20.0811 57.1355 19.9701C56.1074 19.8592 55.2604 17.9901 54.6061 18.8837C53.9519 19.7774 55.3772 21.3895 56.6798 22.1021C57.9825 22.8147 58.4322 21.956 59.3318 22.2306C60.2314 22.5051 60.687 24.0296 60.2022 25.3905C59.7173 26.7514 58.403 27.464 56.8901 28.1182C55.3772 28.7724 54.3433 29.2864 54.022 27.283C53.7007 25.2795 49.5008 21.7107 49.0101 21.0565C48.5194 20.4024 48.5078 19.1057 47.8418 19.2692C46.9364 19.462 46.3873 20.0694 46.5509 20.3381C46.7145 20.6068 48.8874 24.4618 50.9962 25.8286C52.6902 26.9092 53.2802 29.5317 53.9811 30.4488C54.4952 31.1263 55.8445 30.8401 57.0829 30.4955C57.2388 30.4516 57.4032 30.448 57.5609 30.4849C57.7185 30.5218 57.8642 30.5981 57.9844 30.7066C58.1046 30.8151 58.1953 30.9523 58.2481 31.1054C58.3009 31.2584 58.314 31.4224 58.2862 31.5819C57.4217 35.8633 51.9308 38.7429 51.3467 41.0384C50.6983 43.5908 52.217 46.6865 51.8899 47.9949C51.5628 49.3033 48.3559 49.4551 48.0872 50.7109C47.8185 51.9667 49.9798 52.9422 48.35 53.8066C47.4154 54.2914 47.503 52.8779 47.0007 54.6185C46.1245 57.6675 42.0063 59.1277 40.5343 59.5015C39.0623 59.8753 37.9349 59.3438 38.3087 58.3333C38.6826 57.3229 37.2806 53.5496 35.5399 52.2997C33.7992 51.0497 33.7875 49.3792 34.9558 45.238C36.1241 41.0968 30.3411 41.6049 31.7547 38.1237C33.1683 34.6425 30.5572 34.9171 28.9275 33.451C27.2978 31.9849 22.905 39.1926 17.9983 32.0083C13.0916 24.8239 20.4984 19.9526 21.6375 19.1933C22.7765 18.434 24.8444 15.7705 25.3876 15.9282C25.9309 16.0859 29.4006 15.2273 30.6449 14.7892C31.8891 14.3512 33.9569 14.1409 34.284 14.7892C34.6111 15.4376 32.9288 15.1747 33.8459 16.3137C34.763 17.4527 43.1921 18.212 44.8744 18.066C46.5567 17.92 46.9423 18.2821 47.5848 16.5415C48.2274 14.8009 44.705 14.9703 43.7354 15.128C42.7657 15.2857 42.7599 13.0837 41.3988 14.649C40.8147 15.3558 39.6464 13.8488 39.5529 12.6982C39.4595 11.5475 36.2935 10.134 35.7444 11.0043C35.1953 11.8746 38.2211 12.3536 38.297 12.7566C38.3438 12.9493 37.7538 13.732 37.4267 14.3336C37.0996 14.9353 36.9944 14.3336 37.0528 13.7904C37.1112 13.2472 35.499 12.9143 34.9091 12.2134C34.3191 11.5125 32.8354 11.1211 31.4685 11.565C30.1016 12.0089 30.0607 12.1959 28.7581 13.551C27.4555 14.906 25.0021 14.5497 24.6691 14.3336C24.3362 14.1175 25.0021 12.5814 25.1598 11.6819C25.3175 10.7824 27.0115 11.3489 27.9286 11.6176C28.8457 11.8863 28.799 11.2379 28.6413 10.2625C28.4836 9.28707 28.8574 8.82564 29.4006 8.71466C29.9439 8.60369 32.6484 8.24739 33.8518 6.99743C34.7864 6.03368 36.2993 6.72875 37.0587 6.72875C37.8181 6.72875 40.2481 6.4075 40.6394 3.80828C40.7387 3.15994 40.914 2.49992 39.8392 3.22419C39.0455 3.63194 38.4254 4.31213 38.0926 5.14002C37.7655 5.95191 35.1135 5.64234 34.1555 5.09913C33.1975 4.55592 34.4301 4.00104 37.158 2.09689C39.8859 0.192751 43.7354 3.06065 44.6875 2.92046C45.6396 2.78028 48.35 0 48.35 0C56.3151 1.86213 63.4814 6.20921 68.8127 12.4126C74.144 18.616 77.3638 26.3542 78.0067 34.5082Z" fill="#218225"/>
<path d="M27.2278 6.89211C27.3154 6.89211 28.7641 6.19703 28.8751 6.4774C28.9861 6.75776 28.3786 7.64558 28.0515 7.75656C27.7243 7.86754 26.5327 8.10702 26.5093 7.90843C26.486 7.70983 27.2278 6.89211 27.2278 6.89211Z" stroke="#218225" stroke-width="1.6" stroke-miterlimit="10"/>
<path d="M30.2708 5.18075C30.2708 5.18075 30.7031 4.74852 30.9834 4.87702C31.2638 5.00552 32.0699 6.6293 32.0699 6.6293C32.0699 6.6293 30.1189 7.79748 29.6282 7.6865C29.1376 7.57553 30.4636 5.98095 30.2708 5.18075Z" stroke="#218225" stroke-width="1.6" stroke-miterlimit="10"/>
<path d="M72.5974 31.4648C72.4936 32.0776 72.4936 32.7036 72.5974 33.3164C72.7084 33.6318 73.1815 33.1704 73.2808 32.9951C73.3801 32.8199 72.6733 31.4239 72.5974 31.4648Z" stroke="#218225" stroke-width="1.6" stroke-miterlimit="10"/>
<path d="M54.1558 48.6021C54.0978 48.6365 54.048 48.683 54.0096 48.7384C53.9713 48.7939 53.9455 48.857 53.9338 48.9233C53.8462 49.5542 54.039 50.4245 53.7703 50.8801C53.5016 51.3356 52.5611 53.2924 52.9817 53.8005C53.4023 54.3087 54.553 54.6416 54.8801 54.0984C55.2072 53.5552 58.4492 46.0262 57.3218 46.0262C56.5683 46.0262 57.205 46.9316 56.1535 47.469C55.3942 47.8603 54.5238 48.3626 54.1558 48.6021Z" fill="#218225" stroke="#218225" stroke-width="1.6" stroke-miterlimit="10"/>
<path d="M8.96764 61.0375C3.79287 54.3089 0.991257 46.0567 1.00002 37.5686C0.999584 35.0191 1.25002 32.4758 1.74772 29.9754C1.74772 29.9754 1.77692 29.9754 1.77692 29.9754C1.77692 31.0385 1.87038 37.6562 3.34825 38.3046C4.94878 38.9996 7.83442 40.1561 8.02134 42.0544C8.20827 43.9527 7.11009 46.4176 7.43721 47.4807C7.76432 48.5437 8.255 52.2177 8.02134 52.7375C7.78769 53.2573 6.89396 53.1113 7.30285 54.3496C7.71175 55.5879 9.05526 58.5434 9.05526 59.3261C9.07804 59.898 9.04872 60.4708 8.96764 61.0375Z" fill="#218225" stroke="#218225" stroke-width="1.6" stroke-miterlimit="10"/>
<path d="M53.8638 73.3909C46.7699 76.2113 39.0004 76.8718 31.5322 75.2892C32.1428 74.6795 32.9257 74.2718 33.7753 74.121C35.1422 73.9108 41.6962 73.9108 42.8528 73.7063C44.0094 73.5019 47.3565 72.4856 48.2385 72.8886C49.0184 73.3574 49.9249 73.5717 50.8321 73.5019C51.7842 73.3909 53.5425 73.5194 53.8638 73.3909Z" fill="#218225" stroke="#218225" stroke-width="1.6" stroke-miterlimit="10"/>
</svg>
