<svg width="19" height="21" viewBox="0 0 19 21" fill="none" xmlns="http://www.w3.org/2000/svg">
<path d="M17.055 10.9688L16.5275 11.8183L17.055 10.9688ZM17 20C17 20.5523 17.4477 21 18 21C18.5523 21 19 20.5523 19 20H18H17ZM17.8739 11.6257L18.7479 11.1396V11.1396L17.8739 11.6257ZM1 1L0.472499 1.84955L16.5275 11.8183L17.055 10.9688L17.5825 10.1192L1.5275 0.150446L1 1ZM18 20H19V12.6679H18H17V20H18ZM17.055 10.9688L16.5275 11.8183C16.7745 11.9717 16.8998 12.0508 16.9842 12.1151C17.0515 12.1664 17.0272 12.1605 17 12.1117L17.8739 11.6257L18.7479 11.1396C18.5946 10.8641 18.3917 10.6732 18.1966 10.5245C18.0185 10.3887 17.7974 10.2527 17.5825 10.1192L17.055 10.9688ZM18 12.6679H19C19 12.4149 19.0011 12.1553 18.9797 11.9324C18.9562 11.6882 18.9011 11.4151 18.7479 11.1396L17.8739 11.6257L17 12.1117C16.9728 12.0629 16.9807 12.0391 16.9888 12.1234C16.9989 12.229 17 12.3772 17 12.6679H18Z" fill="#37FF00" fill-opacity="0.7"/>
</svg>
