<svg width="56" height="56" viewBox="0 0 56 56" fill="none" xmlns="http://www.w3.org/2000/svg">
<path d="M3.55839 48.4477L7.63238 52.5217C9.29111 54.1804 11.5626 54.6375 12.7852 53.545C16.0577 50.6208 22.286 44.9659 26.4522 40.6271C27.5005 39.5354 27.3969 36.9452 28.5618 35.6574C29.6446 34.4603 33.3432 31.3446 33.6203 31.0676C33.917 30.7708 34.3423 30.8857 34.6928 30.6765C35.2551 30.1975 35.2556 29.3793 34.8869 28.4147C35.1714 27.7119 34.8774 26.6976 34.1027 25.9229L32.0895 23.9097L30.0763 21.8965C29.2708 21.091 28.2061 20.8052 27.5021 21.1491C26.6189 20.8501 25.8746 20.8848 25.4268 21.4105C25.1659 21.7168 25.2991 22.117 25.0396 22.4869C24.25 23.6127 21.6375 26.4531 20.4282 27.5238C19.1275 28.6755 16.4725 28.5071 15.3761 29.5509C11.009 33.7084 5.39983 40.0161 2.51836 43.3195C1.4478 44.5468 1.91142 46.8007 3.55839 48.4477Z" fill="#218225"/>
<path d="M32.0895 23.9097L34.1027 25.9229C34.8774 26.6976 35.1714 27.7119 34.8869 28.4147C35.2556 29.3793 35.2551 30.1975 34.6928 30.6765C34.3423 30.8857 33.917 30.7708 33.6203 31.0676C33.3432 31.3446 29.6446 34.4603 28.5618 35.6574C27.3969 36.9452 27.5005 39.5354 26.4522 40.6271C22.286 44.9659 16.0577 50.6208 12.7852 53.545C11.5626 54.6375 9.29111 54.1804 7.63238 52.5217L3.55838 48.4477C1.91141 46.8007 1.4478 44.5468 2.51836 43.3195C5.39983 40.0161 11.009 33.7084 15.3761 29.5509C16.4725 28.5071 19.1275 28.6755 20.4282 27.5238C21.6375 26.4531 24.25 23.6127 25.0396 22.4869C25.2991 22.117 25.1659 21.7168 25.4268 21.4105C25.8746 20.8848 26.6189 20.8501 27.5021 21.1491C28.2061 20.8052 29.2708 21.091 30.0763 21.8965L32.0895 23.9097ZM32.0895 23.9097L52.6943 3.30495L54.4439 1.55533" stroke="#218225" stroke-width="2" stroke-linecap="round" stroke-linejoin="round"/>
</svg>
