<svg width="38" height="42" viewBox="0 0 38 42" fill="none" xmlns="http://www.w3.org/2000/svg">
<path d="M19 41L1.94946 30.475C1.48543 30.1885 1.25342 30.0453 1.12671 29.8182C1 29.5911 1 29.3184 1 28.7731V12.1111L17.9495 1.64848C18.4606 1.33294 18.7162 1.17518 19 1.17518C19.2838 1.17518 19.5394 1.33294 20.0505 1.64848L37 12.1111V28.7731C37 29.3184 37 29.5911 36.8733 29.8182C36.7466 30.0453 36.5146 30.1885 36.0505 30.475L28 35.4444L19 41Z" fill="#218225"/>
<path d="M19 41V23.2222M19 41L1.94946 30.475C1.48543 30.1885 1.25342 30.0453 1.12671 29.8182C1 29.5911 1 29.3184 1 28.7731V12.1111M19 41L28 35.4444L36.0505 30.475C36.5146 30.1885 36.7466 30.0453 36.8733 29.8182C37 29.5911 37 29.3184 37 28.7731V12.1111M19 23.2222L1 12.1111M19 23.2222L37 12.1111M1 12.1111L17.9495 1.64848C18.4606 1.33294 18.7162 1.17518 19 1.17518C19.2838 1.17518 19.5394 1.33294 20.0505 1.64848L37 12.1111" stroke="#37FF00" stroke-opacity="0.7" stroke-width="2" stroke-linejoin="round"/>
</svg>
