<svg width="58" height="27" viewBox="0 0 58 27" fill="none" xmlns="http://www.w3.org/2000/svg">
<path d="M6.06798 2.46329C6.24876 1.73396 6.33915 1.36929 6.61064 1.15687C6.88213 0.944458 7.25783 0.944458 8.00924 0.944458H49.9908C50.7422 0.944458 51.1179 0.944458 51.3894 1.15687C51.6609 1.36929 51.7512 1.73395 51.932 2.46329L57.385 24.4633C57.6682 25.6057 57.8097 26.1769 57.5095 26.5607C57.2092 26.9445 56.6207 26.9445 55.4438 26.9445H48.5044C46.8839 26.9445 46.0737 26.9445 45.5139 26.4696C44.9542 25.9947 44.8221 25.1954 44.5579 23.5966L43.6973 18.3886C43.6223 17.9348 43.5848 17.7078 43.5 17.7078C43.4152 17.7078 43.3777 17.9348 43.3027 18.3886L42.4421 23.5966C42.1779 25.1954 42.0458 25.9947 41.4861 26.4696C40.9263 26.9445 40.1161 26.9445 38.4956 26.9445H34.0044C32.3839 26.9445 31.5737 26.9445 31.0139 26.4696C30.4542 25.9947 30.3221 25.1954 30.0579 23.5966L29.1973 18.3886C29.1223 17.9348 29.0848 17.7078 29 17.7078C28.9152 17.7078 28.8777 17.9348 28.8027 18.3886L27.9421 23.5966C27.6779 25.1954 27.5458 25.9947 26.9861 26.4696C26.4263 26.9445 25.6161 26.9445 23.9956 26.9445H19.5044C17.8839 26.9445 17.0737 26.9445 16.5139 26.4696C15.9542 25.9947 15.8221 25.1954 15.5579 23.5966L14.6973 18.3886C14.6223 17.9348 14.5848 17.7078 14.5 17.7078C14.4152 17.7078 14.3777 17.9348 14.3027 18.3886L13.4421 23.5966C13.1779 25.1954 13.0458 25.9947 12.4861 26.4696C11.9263 26.9445 11.1161 26.9445 9.49562 26.9445H2.55625C1.37929 26.9445 0.790818 26.9445 0.490538 26.5607C0.190257 26.1769 0.331835 25.6057 0.61499 24.4633L6.06798 2.46329Z" fill="#218225"/>
</svg>
