<svg width="46" height="40" viewBox="0 0 46 40" fill="none" xmlns="http://www.w3.org/2000/svg">
<path d="M37.5 2.5968C37.6822 3.19124 37.9716 3.79724 38.543 4.28137C39.1289 4.77776 39.7925 4.96142 40.4229 5.04016C41.0118 5.11369 41.7293 5.11047 42.5 5.11047H45.5557V37.0558C45.5557 37.9984 45.5556 38.47 45.2627 38.7628C44.9698 39.0555 44.4982 39.0558 43.5557 39.0558H29.4443V23.9445C29.4443 23.3922 28.9966 22.9445 28.4443 22.9445H17.5557C17.0034 22.9445 16.5557 23.3922 16.5557 23.9445V39.0558H2.44434C1.5018 39.0558 1.03018 39.0556 0.737305 38.7628C0.444519 38.47 0.444336 37.9983 0.444336 37.0558V5.11047H3.5C4.27065 5.11047 4.98823 5.11369 5.57715 5.04016C6.20752 4.96142 6.87107 4.77776 7.45703 4.28137C8.02845 3.79724 8.31785 3.19124 8.5 2.5968C8.68215 3.19124 8.97155 3.79724 9.54297 4.28137C10.1289 4.77776 10.7925 4.96142 11.4229 5.04016C12.0118 5.11369 12.7293 5.11047 13.5 5.11047H18C18.7707 5.11047 19.4882 5.11369 20.0771 5.04016C20.7075 4.96142 21.3711 4.77776 21.957 4.28137C22.5284 3.79724 22.8178 3.19124 23 2.5968C23.1822 3.19124 23.4716 3.79724 24.043 4.28137C24.6289 4.77776 25.2925 4.96142 25.9229 5.04016C26.5118 5.11369 27.2293 5.11047 28 5.11047H32.5C33.2707 5.11047 33.9882 5.11369 34.5771 5.04016C35.2075 4.96142 35.8711 4.77776 36.457 4.28137C37.0284 3.79724 37.3178 3.19125 37.5 2.5968ZM27.4443 39.0558H18.5557V24.9445H27.4443V39.0558ZM5.90332 0.388794C5.79854 1.00708 5.72602 1.40197 5.63867 1.69543C5.59168 1.85326 5.55471 1.93202 5.53418 1.9679C5.5251 1.98374 5.51944 1.99028 5.51855 1.99133L5.5166 1.99329C5.51549 1.99392 5.50811 1.99774 5.49121 2.00403C5.4525 2.01837 5.36863 2.04318 5.20508 2.0636C4.84496 2.10855 4.34762 2.11047 3.5 2.11047H0.53125C0.608132 1.6103 0.752755 1.2523 1.03027 0.974731C1.61604 0.388968 2.55886 0.388794 4.44434 0.388794H5.90332ZM20.4033 0.388794C20.2985 1.00708 20.226 1.40197 20.1387 1.69543C20.0917 1.85326 20.0547 1.93202 20.0342 1.9679C20.0251 1.98374 20.0194 1.99028 20.0186 1.99133L20.0166 1.99329C20.0155 1.99393 20.0081 1.99774 19.9912 2.00403C19.9525 2.01837 19.8686 2.04318 19.7051 2.0636C19.345 2.10855 18.8476 2.11047 18 2.11047H13.5C12.6524 2.11047 12.155 2.10855 11.7949 2.0636C11.6314 2.04318 11.5475 2.01837 11.5088 2.00403C11.4919 1.99774 11.4845 1.99392 11.4834 1.99329L11.4814 1.99133C11.4806 1.99028 11.4749 1.98374 11.4658 1.9679C11.4453 1.93202 11.4083 1.85326 11.3613 1.69543C11.274 1.40197 11.2015 1.00708 11.0967 0.388794H20.4033ZM34.9033 0.388794C34.7985 1.00708 34.726 1.40197 34.6387 1.69543C34.5917 1.85326 34.5547 1.93202 34.5342 1.9679C34.5251 1.98374 34.5194 1.99028 34.5186 1.99133L34.5166 1.99329C34.5155 1.99393 34.5081 1.99774 34.4912 2.00403C34.4525 2.01837 34.3686 2.04318 34.2051 2.0636C33.845 2.10855 33.3476 2.11047 32.5 2.11047H28C27.1524 2.11047 26.655 2.10855 26.2949 2.0636C26.1314 2.04318 26.0475 2.01837 26.0088 2.00403C25.9919 1.99774 25.9845 1.99392 25.9834 1.99329L25.9814 1.99133C25.9806 1.99028 25.9749 1.98374 25.9658 1.9679C25.9453 1.93202 25.9083 1.85326 25.8613 1.69543C25.774 1.40197 25.7015 1.00708 25.5967 0.388794H34.9033ZM41.5557 0.388794C43.4411 0.388794 44.3839 0.389027 44.9697 0.974731C45.2473 1.2523 45.3919 1.61029 45.4688 2.11047H42.5C41.6524 2.11047 41.155 2.10855 40.7949 2.0636C40.6314 2.04318 40.5475 2.01837 40.5088 2.00403C40.4919 1.99774 40.4845 1.99392 40.4834 1.99329L40.4814 1.99133C40.4806 1.99028 40.4749 1.98374 40.4658 1.9679C40.4453 1.93202 40.4083 1.85326 40.3613 1.69543C40.274 1.40197 40.2015 1.00708 40.0967 0.388794H41.5557Z" fill="#218225"/>
</svg>
